<svg width="52" height="48" viewBox="0 0 52 48" fill="none" xmlns="http://www.w3.org/2000/svg">
<path fill-rule="evenodd" clip-rule="evenodd" d="M32.7406 9.44458C43.3771 9.44458 52 17.9014 52 28.3335C52 38.7656 43.3771 47.2224 32.7406 47.2224C22.1039 47.2224 13.4816 38.7656 13.4816 28.3335C13.4816 17.9014 22.1039 9.44458 32.7406 9.44458ZM32.7405 17.0002C39.1225 17.0002 44.2962 22.074 44.2962 28.3334C44.2962 34.5926 39.1225 39.6666 32.7405 39.6666C26.3584 39.6666 21.1851 34.5926 21.1851 28.3334C21.1851 22.074 26.3584 17.0002 32.7405 17.0002Z" fill="#313E4F"/>
<path fill-rule="evenodd" clip-rule="evenodd" d="M21.1849 3.77785H21.1945H44.2865H44.2962V0H44.2865H21.1945H21.1849V3.77785Z" fill="#313E4F"/>
<path fill-rule="evenodd" clip-rule="evenodd" d="M7.70381 9.44458H0V47.2224H7.70381V9.44458Z" fill="#313E4F"/>
</svg>
